{"title":"Killzone 3 Trailer  Justice - HD - TM","uid":6174133,"size":59187942,"categoryP":"video","categoryS":"other","magnet":"?xt=urn:btih:3a75b3a4ec87e0eae53abca65df278ba491ec9e8&amp;dn=Killzone+3+Trailer++Justice+-+HD+-+TM&amp;tr=udp%3A%2F%2Ftracker.openbittorrent.com%3A80&amp;tr=udp%3A%2F%2Fopen.demonii.com%3A1337&amp;tr=udp%3A%2F%2Ftracker.coppersurfer.tk%3A6969&amp;tr=udp%3A%2F%2Fexodus.desync.com%3A6969","seeders":0,"leechers":0,"uploader":"torrentsME","files":2,"time":1297702825,"description":"Killzone 3 Trailer 1 Justice [2011 Jan] HD\n\n\nGeneral\n\nFormat                           : Flash Video\n\nFile size                        : 56.4 MiB\n\nDuration                         : 1mn 46s\n\nOverall bit rate                 : 4 454 Kbps\n\n\nVideo\n\nFormat                           : VP6\n\nDuration                         : 1mn 46s\n\nBit rate                         : 4 096 Kbps\n\nWidth                            : 1 280 pixels\n\nHeight                           : 720 pixels\n\nDisplay aspect ratio             : 16:9\n\nFrame rate mode                  : Constant\n\nFrame rate                       : 25.000 fps\n\nBit depth                        : 8 bits\n\nBits/(Pixel*Frame)               : 0.178\n\nStream size                      : 51.9 MiB (92%)\n\nAudio\n\nFormat                           : MPEG Audio\n\nFormat profile                   : Layer 3\n\nDuration                         : 1mn 46s\n\nBit rate mode                    : Constant\n\nBit rate                         : 128 Kbps\n\nChannel(s)                       : 2 channels\n\nSampling rate                    : 44.1 KHz\n\nCompression mode                 : Lossy\n\nStream size                      : 1.62 MiB (3%)\n\nHome link\nhttp[Colon]//www[Dot]killzone[Dot]com[Slash]kz3[Slash]home[Dot]html\n","torrent":{"xt":"urn:btih:3a75b3a4ec87e0eae53abca65df278ba491ec9e8","amp;dn":"Killzone+3+Trailer++Justice+-+HD+-+TM","amp;tr":["udp%3A%2F%2Ftracker.openbittorrent.com%3A80","udp%3A%2F%2Fopen.demonii.com%3A1337","udp%3A%2F%2Ftracker.coppersurfer.tk%3A6969","udp%3A%2F%2Fexodus.desync.com%3A6969"],"infoHash":"3a75b3a4ec87e0eae53abca65df278ba491ec9e8","infoHashBuffer":{"type":"Buffer","data":[58,117,179,164,236,135,224,234,229,58,188,166,93,242,120,186,73,30,201,232]},"announce":[],"urlList":[]}}